ffmpeg started on 2016-11-27 at 09:35:33
Report written to "Output/NVENCh264/results/ffmpeg/sintelllhq7000k.log"
Command line:
Tools/ffmpeg/ffmpeg -benchmark -y -i Input/y4m/sintel.y4m -c:v h264_nvenc -preset llhq -b:v 7000k -an Output/NVENCh264/encoded/sintelllhq7000k.mkv
ffmpeg version N-82227-gdb23fde Copyright (c) 2000-2016 the FFmpeg developers
  built with gcc 5.4.0 (Ubuntu 5.4.0-6ubuntu1~16.04.2) 20160609
  configuration: --prefix=/home/jaroslav/ffmpeg_build --pkg-config-flags=--static --extra-cflags=-I/home/jaroslav/ffmpeg_build/include --extra-ldflags=-L/home/jaroslav/ffmpeg_build/lib --bindir=/home/jaroslav/bin --enable-gpl --enable-libass --enable-libfdk-aac --enable-libfreetype --enable-libmp3lame --enable-libopus --enable-libtheora --enable-libvorbis --enable-libvpx --enable-libx264 --enable-libx265 --enable-nvenc --enable-libmfx --enable-libxvid --enable-libgsm --enable-libopencore-amrnb --enable-version3 --enable-nonfree
  libavutil      55. 35.100 / 55. 35.100
  libavcodec     57. 66.101 / 57. 66.101
  libavformat    57. 57.100 / 57. 57.100
  libavdevice    57.  2.100 / 57.  2.100
  libavfilter     6. 66.100 /  6. 66.100
  libswscale      4.  3.100 /  4.  3.100
  libswresample   2.  4.100 /  2.  4.100
  libpostproc    54.  2.100 / 54.  2.100
Input #0, yuv4mpegpipe, from 'Input/y4m/sintel.y4m':
  Duration: 00:00:20.83, start: 0.000000, bitrate: 2057307 kb/s
    Stream #0:0: Video: rawvideo (I420 / 0x30323449), yuv420p(progressive), 4096x1744, SAR 1:1 DAR 256:109, 24 fps, 24 tbr, 24 tbn, 24 tbc
[h264_nvenc @ 0x34c01c0] The variable bitrate rate-control requires the 'qmin' and/or 'qmax' option set.
Output #0, matroska, to 'Output/NVENCh264/encoded/sintelllhq7000k.mkv':
  Metadata:
    encoder         : Lavf57.57.100
    Stream #0:0: Video: h264 (h264_nvenc) (Main) (H264 / 0x34363248), yuv420p, 4096x1744 [SAR 1:1 DAR 256:109], q=-1--1, 7000 kb/s, 24 fps, 1k tbn, 24 tbc
    Metadata:
      encoder         : Lavc57.66.101 h264_nvenc
    Side data:
      cpb: bitrate max/min/avg: 0/0/7000000 buffer size: 14000000 vbv_delay: -1
Stream mapping:
  Stream #0:0 -> #0:0 (rawvideo (native) -> h264 (h264_nvenc))
Press [q] to stop, [?] for help
frame=   19 fps=0.0 q=0.0 size=       0kB time=00:00:00.00 bitrate=N/A speed=   0x    frame=   40 fps= 39 q=38.0 size=       1kB time=00:00:00.37 bitrate=  15.9kbits/s speed=0.368x    frame=   61 fps= 40 q=38.0 size=       1kB time=00:00:01.25 bitrate=   4.8kbits/s speed=0.817x    frame=   82 fps= 40 q=36.0 size=       1kB time=00:00:02.12 bitrate=   2.8kbits/s speed=1.04x    frame=  103 fps= 40 q=37.0 size=       1kB time=00:00:03.00 bitrate=   2.0kbits/s speed=1.17x    frame=  124 fps= 40 q=33.0 size=       1kB time=00:00:03.87 bitrate=   1.5kbits/s speed=1.27x    frame=  145 fps= 41 q=30.0 size=       1kB time=00:00:04.75 bitrate=   1.3kbits/s speed=1.33x    frame=  148 fps= 20 q=34.0 size=    4008kB time=00:00:04.87 bitrate=6733.8kbits/s speed=0.645x    frame=  149 fps= 14 q=34.0 size=    4008kB time=00:00:04.91 bitrate=6676.3kbits/s speed=0.453x    frame=  150 fps= 11 q=34.0 size=    4008kB time=00:00:04.95 bitrate=6621.1kbits/s speed=0.352x    frame=  169 fps= 12 q=36.0 size=    4008kB time=00:00:05.75 bitrate=5709.3kbits/s speed=0.394x    frame=  190 fps= 13 q=35.0 size=    4008kB time=00:00:06.62 bitrate=4955.3kbits/s speed=0.439x    frame=  211 fps= 14 q=33.0 size=    4008kB time=00:00:07.50 bitrate=4377.3kbits/s speed=0.48x    frame=  232 fps= 14 q=33.0 size=    4008kB time=00:00:08.37 bitrate=3920.0kbits/s speed=0.519x    frame=  253 fps= 15 q=35.0 size=    4008kB time=00:00:09.25 bitrate=3549.3kbits/s speed=0.556x    frame=  274 fps= 16 q=31.0 size=    8295kB time=00:00:10.12 bitrate=6710.7kbits/s speed=0.59x    frame=  287 fps= 16 q=31.0 size=    8295kB time=00:00:10.66 bitrate=6369.7kbits/s speed=0.602x    frame=  308 fps= 17 q=30.0 size=    9285kB time=00:00:11.54 bitrate=6589.2kbits/s speed=0.633x    frame=  329 fps= 18 q=29.0 size=    9285kB time=00:00:12.41 bitrate=6124.9kbits/s speed=0.662x    frame=  350 fps= 18 q=28.0 size=    9285kB time=00:00:13.29 bitrate=5721.7kbits/s speed=0.69x    frame=  371 fps= 19 q=29.0 size=    9285kB time=00:00:14.16 bitrate=5368.3kbits/s speed=0.717x    frame=  381 fps= 19 q=26.0 size=    9285kB time=00:00:14.58 bitrate=5215.2kbits/s speed=0.719x    frame=  402 fps= 19 q=27.0 size=    9285kB time=00:00:15.45 bitrate=4920.0kbits/s speed=0.744x    frame=  422 fps= 20 q=28.0 size=   13766kB time=00:00:16.29 bitrate=6921.6kbits/s speed=0.765x    frame=  443 fps= 20 q=31.0 size=   13766kB time=00:00:17.16 bitrate=6568.8kbits/s speed=0.787x    frame=  464 fps= 21 q=32.0 size=   14908kB time=00:00:18.04 bitrate=6768.5kbits/s speed=0.809x    frame=  485 fps= 21 q=31.0 size=   14908kB time=00:00:18.91 bitrate=6455.5kbits/s speed=0.829x    frame=  500 fps= 22 q=31.0 Lsize=   17806kB time=00:00:20.79 bitrate=7015.1kbits/s speed=0.895x    
video:17801kB audio:0kB subtitle:0kB other streams:0kB global headers:0kB muxing overhead: 0.027194%
bench: utime=0.828s
bench: maxrss=1191652kB
